<?xml version="1.0" encoding="utf-8"?>
<svg version="1.1" viewBox="0 0 1000 1000" width="1000" height="1000" style="stroke:none;stroke-linecap:butt;stroke-linejoin:miter;stroke-width:1;stroke-dasharray:none;fill:#000000;fill-opacity:1;fill-rule:evenodd" font-family="Arial" font-size="15" xmlns:xlink="http://www.w3.org/1999/xlink" xmlns="http://www.w3.org/2000/svg">
  <defs>
    <filter id="shadow1" x="-1000" y="-1000" width="2000" height="2000">
      <feGaussianBlur in="SourceAlpha" stdDeviation="5" />
      <feOffset dx="14.4698" dy="64.0805" result="offsetblur" />
      <feFlood flood-color="#404040" flood-opacity="0.5" />
      <feComposite operator="in" in2="offsetblur" />
      <feMerge>
        <feMergeNode />
        <feMergeNode in="SourceGraphic" />
      </feMerge>
    </filter>
    <filter id="shadow2" x="-1000" y="-1000" width="2000" height="2000">
      <feGaussianBlur in="SourceAlpha" stdDeviation="5" />
      <feOffset dx="14.4698" dy="64.0805" result="offsetblur" />
      <feFlood flood-color="#404040" flood-opacity="0.5" />
      <feComposite operator="in" in2="offsetblur" />
      <feMerge>
        <feMergeNode />
        <feMergeNode in="SourceGraphic" />
      </feMerge>
    </filter>
  </defs>
  <path id="Rectangle" d="M427.6001,543.9766L548.6052,543.9766C564.2243,543.9766 577.077,556.7288 577.077,572.2259L577.077,812.3447C577.077,827.8418 564.2243,840.5939 548.6052,840.5939L427.6001,840.5939C411.981,840.5939 399.1283,827.8418 399.1283,812.3447L399.1283,572.2259C399.1283,556.7288 411.981,543.9766 427.6001,543.9766z" style="fill:#B2B2B2;" />
  <g id="Shape" opacity="1" filter="url(#shadow1)" />
  <path id="Rectangle1" d="M309.8428,550.8837L430.6566,550.8837C446.2757,550.8837 459.1283,563.6359 459.1283,579.133L459.1283,815.7273C459.1283,831.2244 446.2757,843.9766 430.6566,843.9766L309.8428,843.9766C294.2237,843.9766 281.3711,831.2244 281.3711,815.7273L281.3711,579.133C281.3711,563.6359 294.2237,550.8837 309.8428,550.8837z" style="fill:#B2B2B2;" />
  <path id="Polygon" d="M757.755,497.0391L279.479,496.1077L520.151,278.7829z" style="fill:#B2B2B2;" />
  <path id="Rectangle2" d="M609.1283,543.9766L739.1283,543.9766C750.1,543.9766 759.1283,553.496 759.1283,565.0645L759.1283,822.8887C759.1283,834.4572 750.1,843.9766 739.1283,843.9766L609.1283,843.9766C598.1567,843.9766 589.1283,834.4572 589.1283,822.8887L589.1283,565.0645C589.1283,553.496 598.1567,543.9766 609.1283,543.9766z" style="fill:#B2B2B2;" />
  <path id="Rectangle3" d="M286.8856,483.9766L741.3711,483.9766C751.1124,483.9766 759.1283,490.4528 759.1283,498.3229L759.1283,579.6302C759.1283,587.5004 751.1124,593.9766 741.3711,593.9766L286.8856,593.9766C277.1443,593.9766 269.1283,587.5004 269.1283,579.6302L269.1283,498.3229C269.1283,490.4528 277.1443,483.9766 286.8856,483.9766z" style="fill:#B2B2B2;" />
  <path id="Rectangle4" d="M782.2162,484.9341L509.3181,257.8807C503.136,252.7372 502.2547,243.3976 507.3658,237.191L520.0763,221.756C525.1873,215.5495 534.4801,214.6747 540.6621,219.8182L813.5603,446.8716C819.7423,452.0151 820.6236,461.3548 815.5126,467.5613L802.802,482.9963C797.691,489.2029 788.3982,490.0776 782.2162,484.9341z" style="fill:#B2B2B2;" />
  <path id="Rectangle5" d="M502.0274,614.4445L560.6566,614.4445C576.2757,614.4445 589.1283,627.1967 589.1283,642.6938L589.1283,815.7273C589.1283,831.2244 576.2757,843.9766 560.6566,843.9766L502.0274,843.9766C486.4082,843.9766 473.5556,831.2244 473.5556,815.7273L473.5556,642.6938C473.5556,627.1967 486.4082,614.4445 502.0274,614.4445z" style="fill:#B2B2B2;" />
  <path id="Rectangle6" d="M473.5556,614.4445L587.4427,614.4445L587.4427,699.1924L473.5556,699.1924z" style="fill:#B2B2B2;" />
  <path id="Rectangle7" d="M281.3711,762.7532L459.1283,762.7532L459.1283,833.9766L281.3711,833.9766z" style="fill:#B2B2B2;" />
  <path id="Rectangle8" d="M473.5556,762.7532L589.1283,762.7532L589.1283,833.9766L473.5556,833.9766z" style="fill:#B2B2B2;" />
  <path id="Rectangle9" d="M244.1163,437.9442L518.0475,217.3019C524.4329,212.1588 534.029,213.0867 539.3053,219.3575L555.6969,238.8387C560.9733,245.1095 560.0607,254.5018 553.6754,259.645L279.7442,480.2873C273.3589,485.4305 263.7627,484.5025 258.4864,478.2317L242.0948,458.7505C236.8184,452.4797 237.731,443.0874 244.1163,437.9442z" style="fill:#B2B2B2;" />
  <g id="Shape1" opacity="1" filter="url(#shadow2)" />
  <path id="Rectangle10" d="M260.0172,548.3946L381.0223,548.3946C396.6414,548.3946 409.4941,561.1468 409.4941,576.6439L409.4941,816.7627C409.4941,832.2598 396.6414,845.012 381.0223,845.012L260.0172,845.012C244.3981,845.012 231.5455,832.2598 231.5455,816.7627L231.5455,576.6439C231.5455,561.1468 244.3981,548.3946 260.0172,548.3946z" style="fill:#FFFFFF;" />
  <path id="Polygon1" d="M722.6836,491.8961L238.6634,491.8919L480.6811,294.1512z" style="fill:#FFFFFF;" />
  <path id="Rectangle11" d="M580.3247,548.3946L701.3298,548.3946C716.949,548.3946 729.8016,561.1468 729.8016,576.6439L729.8016,816.7627C729.8016,832.2598 716.949,845.012 701.3298,845.012L580.3247,845.012C564.7056,845.012 551.853,832.2598 551.853,816.7627L551.853,576.6439C551.853,561.1468 564.7056,548.3946 580.3247,548.3946z" style="fill:#FFFFFF;" />
  <path id="Rectangle12" d="M260.0172,484.8337L701.3298,484.8337C716.949,484.8337 729.8016,494.7064 729.8016,506.7041L729.8016,575.9604C729.8016,587.9582 716.949,597.8308 701.3298,597.8308L260.0172,597.8308C244.3981,597.8308 231.5455,587.9582 231.5455,575.9604L231.5455,506.7041C231.5455,494.7064 244.3981,484.8337 260.0172,484.8337z" style="fill:#FFFFFF;" />
  <path id="Rectangle13" d="M737.304,482.4451L459.2863,251.1321C453.1043,245.9886 452.223,236.649 457.334,230.4424L469.8116,215.2903C474.9226,209.0838 484.2154,208.209 490.3974,213.3525L768.4151,444.6655C774.5971,449.809 775.4784,459.1486 770.3674,465.3552L757.8898,480.5073C752.7788,486.7138 743.486,487.5886 737.304,482.4451z" style="fill:#FFFFFF;" />
  <path id="Rectangle14" d="M452.2017,611.9555L509.1453,611.9555C524.7645,611.9555 537.6171,624.7076 537.6171,640.2047L537.6171,816.7627C537.6171,832.2598 524.7645,845.012 509.1453,845.012L452.2017,845.012C436.5826,845.012 423.73,832.2598 423.73,816.7627L423.73,640.2047C423.73,624.7076 436.5826,611.9555 452.2017,611.9555z" style="fill:#FFFFFF;" />
  <path id="Rectangle15" d="M423.73,611.9555L537.6171,611.9555L537.6171,696.7033L423.73,696.7033z" style="fill:#FFFFFF;" />
  <path id="Rectangle16" d="M231.5455,760.2641L409.4941,760.2641L409.4941,845.012L231.5455,845.012z" style="fill:#FFFFFF;" />
  <path id="Rectangle17" d="M551.853,760.2641L729.8016,760.2641L729.8016,845.012L551.853,845.012z" style="fill:#FFFFFF;" />
  <path id="Rectangle18" d="M423.73,760.2641L537.6171,760.2641L537.6171,845.012L423.73,845.012z" style="fill:#FFFFFF;" />
  <path id="Rectangle19" d="M194.4754,433.8092L465.7204,215.1169C471.9817,210.0687 481.3914,210.9795 486.5653,217.1345L499.697,232.7567C504.8709,238.9117 503.9761,248.1306 497.7148,253.1788L226.4698,471.8712C220.2084,476.9194 210.7987,476.0086 205.6248,469.8535L192.4931,454.2314C187.3192,448.0763 188.214,438.8574 194.4754,433.8092z" style="fill:#FFFFFF;" />
</svg>