<?xml version="1.0" encoding="utf-8"?>
<svg version="1.1" viewBox="0 0 1000 1000" width="1000" height="1000" style="stroke:none;stroke-linecap:butt;stroke-linejoin:miter;stroke-width:1;stroke-dasharray:none;fill:#000000;fill-opacity:1;fill-rule:evenodd" font-family="Arial" font-size="15" xmlns:xlink="http://www.w3.org/1999/xlink" xmlns="http://www.w3.org/2000/svg">
  <defs>
    <filter id="shadow1" x="-1000" y="-1000" width="2000" height="2000">
      <feGaussianBlur in="SourceAlpha" stdDeviation="5" />
      <feOffset dx="14.4698" dy="64.0805" result="offsetblur" />
      <feFlood flood-color="#404040" flood-opacity="0.5" />
      <feComposite operator="in" in2="offsetblur" />
      <feMerge>
        <feMergeNode />
        <feMergeNode in="SourceGraphic" />
      </feMerge>
    </filter>
  </defs>
  <path id="Circle" d="M391.9475,357.6244C391.9475,282.1259 453.1103,220 527.4385,220C601.7666,220 662.9294,282.1259 662.9294,357.6244C662.9294,433.1229 601.7666,495.2488 527.4385,495.2488C453.1103,495.2488 391.9475,433.1229 391.9475,357.6244z" style="fill:#B2B2B2;" />
  <g id="Shape" opacity="1" filter="url(#shadow1)" />
  <path id="Rectangle" d="M413.6201,737.8796L579.9302,737.8796L579.9302,816.247L413.6201,816.247z" style="fill:#FFFFFF;" />
  <path id="Pie Slice" d="M345.0446,838.5967C345.0577,630.0355 434.2131,458.4363 542.5462,458.4615C650.8792,458.4867 740.0131,630.1274 740,838.6886L542.5223,838.6408z" style="fill:#B2B2B2;" />
  <path id="Pie Slice1" d="M270,839.9101C270.0133,635.8609 360.7898,467.974 471.0925,467.9987C581.3952,468.0234 672.1497,635.9508 672.1364,840L471.0682,839.9532z" style="fill:#FFFFFF;" />
  <path id="Circle1" d="M334.6291,357.6244C334.6291,282.1259 395.7919,220 470.12,220C544.4482,220 605.611,282.1259 605.611,357.6244C605.611,433.1229 544.4482,495.2488 470.12,495.2488C395.7919,495.2488 334.6291,433.1229 334.6291,357.6244z" style="fill:#FFFFFF;" />
</svg>