<?xml version="1.0" encoding="utf-8"?>
<svg version="1.1" viewBox="0 0 1000 1000" width="1000" height="1000" style="stroke:none;stroke-linecap:butt;stroke-linejoin:miter;stroke-width:1;stroke-dasharray:none;fill:#000000;fill-opacity:1;fill-rule:evenodd" font-family="Arial" font-size="15" xmlns:xlink="http://www.w3.org/1999/xlink" xmlns="http://www.w3.org/2000/svg">
  <defs>
    <filter id="shadow1" x="-1000" y="-1000" width="2000" height="2000">
      <feGaussianBlur in="SourceAlpha" stdDeviation="5" />
      <feOffset dx="14.4698" dy="64.0805" result="offsetblur" />
      <feFlood flood-color="#404040" flood-opacity="0.5" />
      <feComposite operator="in" in2="offsetblur" />
      <feMerge>
        <feMergeNode />
        <feMergeNode in="SourceGraphic" />
      </feMerge>
    </filter>
    <filter id="shadow2" x="-1000" y="-1000" width="2000" height="2000">
      <feGaussianBlur in="SourceAlpha" stdDeviation="5" />
      <feOffset dx="14.4698" dy="64.0805" result="offsetblur" />
      <feFlood flood-color="#404040" flood-opacity="0.5" />
      <feComposite operator="in" in2="offsetblur" />
      <feMerge>
        <feMergeNode />
        <feMergeNode in="SourceGraphic" />
      </feMerge>
    </filter>
    <filter id="shadow3" x="-1000" y="-1000" width="2000" height="2000">
      <feGaussianBlur in="SourceAlpha" stdDeviation="5" />
      <feOffset dx="14.4698" dy="64.0805" result="offsetblur" />
      <feFlood flood-color="#404040" flood-opacity="0.5" />
      <feComposite operator="in" in2="offsetblur" />
      <feMerge>
        <feMergeNode />
        <feMergeNode in="SourceGraphic" />
      </feMerge>
    </filter>
    <filter id="shadow4" x="-1000" y="-1000" width="2000" height="2000">
      <feGaussianBlur in="SourceAlpha" stdDeviation="5" />
      <feOffset dx="14.4698" dy="64.0805" result="offsetblur" />
      <feFlood flood-color="#404040" flood-opacity="0.5" />
      <feComposite operator="in" in2="offsetblur" />
      <feMerge>
        <feMergeNode />
        <feMergeNode in="SourceGraphic" />
      </feMerge>
    </filter>
  </defs>
  <path id="Polygon" d="M519.7094,723.6396L553.2564,670L588.6364,710.789z" style="fill:#B2B2B2;" />
  <g id="Shape" opacity="1" filter="url(#shadow1)" />
  <g id="Shape1" opacity="1" filter="url(#shadow2)" />
  <path id="Rectangle" d="M287.6001,190L300.6566,190C316.2757,190 329.1283,199.8727 329.1283,211.8704L329.1283,818.1296C329.1283,830.1273 316.2757,840 300.6566,840L287.6001,840C271.981,840 259.1283,830.1273 259.1283,818.1296L259.1283,211.8704C259.1283,199.8727 271.981,190 287.6001,190z" style="fill:#B2B2B2;" />
  <path id="Rectangle1" d="M717.6001,190L730.6566,190C746.2757,190 759.1283,199.8727 759.1283,211.8704L759.1283,818.1296C759.1283,830.1273 746.2757,840 730.6566,840L717.6001,840C701.981,840 689.1283,830.1273 689.1283,818.1296L689.1283,211.8704C689.1283,199.8727 701.981,190 717.6001,190z" style="fill:#B2B2B2;" />
  <path id="Rectangle2" d="M287.6001,780L730.6566,780C746.2757,780 759.1283,789.8727 759.1283,801.8704L759.1283,818.1296C759.1283,830.1273 746.2757,840 730.6566,840L287.6001,840C271.981,840 259.1283,830.1273 259.1283,818.1296L259.1283,801.8704C259.1283,789.8727 271.981,780 287.6001,780z" style="fill:#B2B2B2;" />
  <path id="Rectangle3" d="M287.6001,190L730.6566,190C746.2757,190 759.1283,199.8727 759.1283,211.8704L759.1283,228.1296C759.1283,240.1273 746.2757,250 730.6566,250L287.6001,250C271.981,250 259.1283,240.1273 259.1283,228.1296L259.1283,211.8704C259.1283,199.8727 271.981,190 287.6001,190z" style="fill:#B2B2B2;" />
  <path id="Rectangle4" d="M387.6001,290L560.6566,290C576.2757,290 589.1283,299.8727 589.1283,311.8704L589.1283,318.1296C589.1283,330.1273 576.2757,340 560.6566,340L387.6001,340C371.981,340 359.1283,330.1273 359.1283,318.1296L359.1283,311.8704C359.1283,299.8727 371.981,290 387.6001,290z" style="fill:#B2B2B2;" />
  <path id="Rectangle5" d="M387.6001,390L630.6566,390C646.2757,390 659.1283,399.8727 659.1283,411.8704L659.1283,418.1296C659.1283,430.1273 646.2757,440 630.6566,440L387.6001,440C371.981,440 359.1283,430.1273 359.1283,418.1296L359.1283,411.8704C359.1283,399.8727 371.981,390 387.6001,390z" style="fill:#B2B2B2;" />
  <path id="Rectangle6" d="M377.6001,490L550.6566,490C566.2757,490 579.1283,499.8727 579.1283,511.8704L579.1283,518.1296C579.1283,530.1273 566.2757,540 550.6566,540L377.6001,540C361.981,540 349.1283,530.1273 349.1283,518.1296L349.1283,511.8704C349.1283,499.8727 361.981,490 377.6001,490z" style="fill:#B2B2B2;" />
  <path id="Rectangle7" d="M377.6001,590L550.6566,590C566.2757,590 579.1283,599.8727 579.1283,611.8704L579.1283,618.1296C579.1283,630.1273 566.2757,640 550.6566,640L377.6001,640C361.981,640 349.1283,630.1273 349.1283,618.1296L349.1283,611.8704C349.1283,599.8727 361.981,590 377.6001,590z" style="fill:#B2B2B2;" />
  <path id="Rectangle8" d="M384.1283,690L384.1283,690C397.8429,690 409.1283,698.6688 409.1283,709.2036L409.1283,720.7964C409.1283,731.3312 397.8429,740 384.1283,740L384.1283,740C370.4137,740 359.1283,731.3312 359.1283,720.7964L359.1283,709.2036C359.1283,698.6688 370.4137,690 384.1283,690z" style="fill:#B2B2B2;" />
  <path id="Rectangle9" d="M484.1283,690L484.1283,690C497.8429,690 509.1283,698.6688 509.1283,709.2036L509.1283,720.7964C509.1283,731.3312 497.8429,740 484.1283,740L484.1283,740C470.4137,740 459.1283,731.3312 459.1283,720.7964L459.1283,709.2036C459.1283,698.6688 470.4137,690 484.1283,690z" style="fill:#B2B2B2;" />
  <path id="Polygon1" d="M539.1283,733.6396L572.6752,680L608.0553,720.789z" style="fill:#B2B2B2;" />
  <g id="Shape2" opacity="1" filter="url(#shadow3)" />
  <g id="Shape3" opacity="1" filter="url(#shadow4)" />
  <path id="Rectangle10" d="M268.1812,200L281.2377,200C296.8568,200 309.7094,209.8727 309.7094,221.8704L309.7094,828.1296C309.7094,840.1273 296.8568,850 281.2377,850L268.1812,850C252.5621,850 239.7094,840.1273 239.7094,828.1296L239.7094,221.8704C239.7094,209.8727 252.5621,200 268.1812,200z" style="fill:#FFFFFF;" />
  <path id="Rectangle11" d="M698.1812,200L711.2377,200C726.8568,200 739.7094,209.8727 739.7094,221.8704L739.7094,828.1296C739.7094,840.1273 726.8568,850 711.2377,850L698.1812,850C682.5621,850 669.7094,840.1273 669.7094,828.1296L669.7094,221.8704C669.7094,209.8727 682.5621,200 698.1812,200z" style="fill:#FFFFFF;" />
  <path id="Rectangle12" d="M560.9201,657.2412L717.1106,518.5919C728.7915,508.2229 744.9575,507.0738 752.9223,516.0464L765.1905,529.8666C773.1553,538.8392 770.0976,554.7549 758.4167,565.1239L602.2262,703.7732C590.5454,714.1422 574.3794,715.2913 566.4145,706.3187L554.1464,692.4985C546.1815,683.5259 549.2393,667.6102 560.9201,657.2412z" style="fill:#B2B2B2;" />
  <path id="Rectangle13" d="M268.1812,790L711.2377,790C726.8568,790 739.7094,799.8727 739.7094,811.8704L739.7094,828.1296C739.7094,840.1273 726.8568,850 711.2377,850L268.1812,850C252.5621,850 239.7094,840.1273 239.7094,828.1296L239.7094,811.8704C239.7094,799.8727 252.5621,790 268.1812,790z" style="fill:#FFFFFF;" />
  <path id="Rectangle14" d="M268.1812,200L711.2377,200C726.8568,200 739.7094,209.8727 739.7094,221.8704L739.7094,238.1296C739.7094,250.1273 726.8568,260 711.2377,260L268.1812,260C252.5621,260 239.7094,250.1273 239.7094,238.1296L239.7094,221.8704C239.7094,209.8727 252.5621,200 268.1812,200z" style="fill:#FFFFFF;" />
  <path id="Rectangle15" d="M368.1812,300L541.2377,300C556.8568,300 569.7094,309.8727 569.7094,321.8704L569.7094,328.1296C569.7094,340.1273 556.8568,350 541.2377,350L368.1812,350C352.5621,350 339.7094,340.1273 339.7094,328.1296L339.7094,321.8704C339.7094,309.8727 352.5621,300 368.1812,300z" style="fill:#FFFFFF;" />
  <path id="Rectangle16" d="M368.1812,400L611.2377,400C626.8568,400 639.7094,409.8727 639.7094,421.8704L639.7094,428.1296C639.7094,440.1273 626.8568,450 611.2377,450L368.1812,450C352.5621,450 339.7094,440.1273 339.7094,428.1296L339.7094,421.8704C339.7094,409.8727 352.5621,400 368.1812,400z" style="fill:#FFFFFF;" />
  <path id="Rectangle17" d="M358.1812,500L531.2377,500C546.8568,500 559.7094,509.8727 559.7094,521.8704L559.7094,528.1296C559.7094,540.1273 546.8568,550 531.2377,550L358.1812,550C342.5621,550 329.7094,540.1273 329.7094,528.1296L329.7094,521.8704C329.7094,509.8727 342.5621,500 358.1812,500z" style="fill:#FFFFFF;" />
  <path id="Rectangle18" d="M358.1812,600L531.2377,600C546.8568,600 559.7094,609.8727 559.7094,621.8704L559.7094,628.1296C559.7094,640.1273 546.8568,650 531.2377,650L358.1812,650C342.5621,650 329.7094,640.1273 329.7094,628.1296L329.7094,621.8704C329.7094,609.8727 342.5621,600 358.1812,600z" style="fill:#FFFFFF;" />
  <path id="Rectangle19" d="M364.7094,700L364.7094,700C378.424,700 389.7094,708.6688 389.7094,719.2036L389.7094,730.7964C389.7094,741.3312 378.424,750 364.7094,750L364.7094,750C350.9949,750 339.7094,741.3312 339.7094,730.7964L339.7094,719.2036C339.7094,708.6688 350.9949,700 364.7094,700z" style="fill:#FFFFFF;" />
  <path id="Rectangle20" d="M464.7094,700L464.7094,700C478.424,700 489.7094,708.6688 489.7094,719.2036L489.7094,730.7964C489.7094,741.3312 478.424,750 464.7094,750L464.7094,750C450.9949,750 439.7094,741.3312 439.7094,730.7964L439.7094,719.2036C439.7094,708.6688 450.9949,700 464.7094,700z" style="fill:#FFFFFF;" />
  <path id="Polygon2" d="M519.7094,743.6396L553.2564,690L588.6364,730.789z" style="fill:#FFFFFF;" />
  <path id="Rectangle21" d="M560.9201,677.2412L717.1106,538.5919C728.7915,528.2229 744.9575,527.0738 752.9223,536.0464L765.1905,549.8666C773.1553,558.8392 770.0976,574.7549 758.4167,585.1239L602.2262,723.7732C590.5454,734.1422 574.3794,735.2913 566.4145,726.3187L554.1464,712.4985C546.1815,703.5259 549.2393,687.6102 560.9201,677.2412z" style="fill:#FFFFFF;" />
</svg>