<?xml version="1.0" encoding="utf-8"?>
<svg version="1.1" viewBox="0 0 1000 1000" width="1000" height="1000" style="stroke:none;stroke-linecap:butt;stroke-linejoin:miter;stroke-width:1;stroke-dasharray:none;fill:#000000;fill-opacity:1;fill-rule:evenodd" font-family="Arial" font-size="15" xmlns:xlink="http://www.w3.org/1999/xlink" xmlns="http://www.w3.org/2000/svg">
  <defs>
    <filter id="shadow1" x="-1000" y="-1000" width="2000" height="2000">
      <feGaussianBlur in="SourceAlpha" stdDeviation="5" />
      <feOffset dx="14.4698" dy="64.0805" result="offsetblur" />
      <feFlood flood-color="#404040" flood-opacity="0.5" />
      <feComposite operator="in" in2="offsetblur" />
      <feMerge>
        <feMergeNode />
        <feMergeNode in="SourceGraphic" />
      </feMerge>
    </filter>
    <filter id="shadow2" x="-1000" y="-1000" width="2000" height="2000">
      <feGaussianBlur in="SourceAlpha" stdDeviation="5" />
      <feOffset dx="14.4698" dy="64.0805" result="offsetblur" />
      <feFlood flood-color="#404040" flood-opacity="0.5" />
      <feComposite operator="in" in2="offsetblur" />
      <feMerge>
        <feMergeNode />
        <feMergeNode in="SourceGraphic" />
      </feMerge>
    </filter>
  </defs>
  <path id="Rectangle" d="M782.2341,472.6244L495.7117,251.9337C489.3405,247.0264 488.1085,237.7265 492.9824,231.3321L504.8812,215.7213C509.7551,209.3269 519.0084,208.1032 525.3795,213.0105L811.902,433.7012C818.2731,438.6085 819.5051,447.9084 814.6312,454.3029L802.7325,469.9136C797.8586,476.308 788.6053,477.5317 782.2341,472.6244z" style="fill:#B2B2B2;" />
  <path id="Rectangle1" d="M726.3978,516.8272L485.6334,328.0514C479.2135,323.0178 478.1137,313.6594 483.1971,307.3202L492.6334,295.5527C497.7167,289.2135 507.1824,288.1392 513.6022,293.1728L754.3666,481.9486C760.7865,486.9822 761.8863,496.3406 756.803,502.6797L747.3667,514.4473C742.2833,520.7865 732.8176,521.8608 726.3978,516.8272z" style="fill:#B2B2B2;" />
  <path id="Rectangle2" d="M427.6001,543.9766L548.6052,543.9766C564.2243,543.9766 577.077,556.7288 577.077,572.2259L577.077,812.3447C577.077,827.8418 564.2243,840.5939 548.6052,840.5939L427.6001,840.5939C411.981,840.5939 399.1283,827.8418 399.1283,812.3447L399.1283,572.2259C399.1283,556.7288 411.981,543.9766 427.6001,543.9766z" style="fill:#B2B2B2;" />
  <g id="Shape" opacity="1" filter="url(#shadow1)" />
  <path id="Rectangle3" d="M309.8428,550.8837L431.5282,550.8837C447.1474,550.8837 460,563.6359 460,579.133L460,811.7507C460,827.2478 447.1474,840 431.5282,840L309.8428,840C294.2237,840 281.3711,827.2478 281.3711,811.7507L281.3711,579.133C281.3711,563.6359 294.2237,550.8837 309.8428,550.8837z" style="fill:#B2B2B2;" />
  <path id="Rectangle4" d="M609.1283,543.9766L740,543.9766C750.9717,543.9766 760,553.496 760,565.0645L760,818.9121C760,830.4806 750.9717,840 740,840L609.1283,840C598.1567,840 589.1283,830.4806 589.1283,818.9121L589.1283,565.0645C589.1283,553.496 598.1567,543.9766 609.1283,543.9766z" style="fill:#B2B2B2;" />
  <path id="Rectangle5" d="M286.8856,483.9766L741.3711,483.9766C751.1124,483.9766 759.1283,490.4528 759.1283,498.3229L759.1283,579.6302C759.1283,587.5004 751.1124,593.9766 741.3711,593.9766L286.8856,593.9766C277.1443,593.9766 269.1283,587.5004 269.1283,579.6302L269.1283,498.3229C269.1283,490.4528 277.1443,483.9766 286.8856,483.9766z" style="fill:#B2B2B2;" />
  <path id="Rectangle6" d="M502.0274,614.4445L561.5282,614.4445C577.1474,614.4445 590,627.1967 590,642.6938L590,811.7507C590,827.2478 577.1474,840 561.5282,840L502.0274,840C486.4082,840 473.5556,827.2478 473.5556,811.7507L473.5556,642.6938C473.5556,627.1967 486.4082,614.4445 502.0274,614.4445z" style="fill:#B2B2B2;" />
  <path id="Rectangle7" d="M473.5556,614.4445L587.4427,614.4445L587.4427,699.1924L473.5556,699.1924z" style="fill:#B2B2B2;" />
  <path id="Rectangle8" d="M281.3711,762.7532L459.1283,762.7532L459.1283,833.9766L281.3711,833.9766z" style="fill:#B2B2B2;" />
  <path id="Rectangle9" d="M473.5556,762.7532L589.1283,762.7532L589.1283,833.9766L473.5556,833.9766z" style="fill:#B2B2B2;" />
  <path id="Rectangle10" d="M245.4529,444.4759L507.5999,233.3253C513.9853,228.1822 523.5814,229.1101 528.8577,235.381L540.3819,249.0773C545.6582,255.3481 544.7457,264.7404 538.3603,269.8836L276.2133,481.0341C269.828,486.1772 260.2319,485.2493 254.9556,478.9785L243.4314,465.2822C238.1551,459.0113 239.0676,449.619 245.4529,444.4759z" style="fill:#B2B2B2;" />
  <g id="Shape1" opacity="1" filter="url(#shadow2)" />
  <path id="Rectangle11" d="M260.0172,548.3946L381.5282,548.3946C397.1474,548.3946 410,561.1468 410,576.6439L410,811.7507C410,827.2478 397.1474,840 381.5282,840L260.0172,840C244.3981,840 231.5455,827.2478 231.5455,811.7507L231.5455,576.6439C231.5455,561.1468 244.3981,548.3946 260.0172,548.3946z" style="fill:#FFFFFF;" />
  <path id="Polygon" d="M724.0202,527.7449L240,527.7407L482.0177,330z" style="fill:#FFFFFF;" />
  <path id="Rectangle12" d="M578.4718,550L701.5282,550C717.1474,550 730,562.7522 730,578.2493L730,811.7507C730,827.2478 717.1474,840 701.5282,840L578.4718,840C562.8526,840 550,827.2478 550,811.7507L550,578.2493C550,562.7522 562.8526,550 578.4718,550z" style="fill:#FFFFFF;" />
  <path id="Rectangle13" d="M260.0172,484.8337L701.5282,484.8337C717.1474,484.8337 730,494.7064 730,506.7041L730,598.1296C730,610.1273 717.1474,620 701.5282,620L260.0172,620C244.3981,620 231.5455,610.1273 231.5455,598.1296L231.5455,506.7041C231.5455,494.7064 244.3981,484.8337 260.0172,484.8337z" style="fill:#FFFFFF;" />
  <path id="Rectangle14" d="M742.2341,472.6244L455.7117,251.9337C449.3405,247.0264 448.1085,237.7265 452.9824,231.3321L464.8812,215.7213C469.7551,209.3269 479.0084,208.1032 485.3795,213.0105L771.902,433.7012C778.2731,438.6085 779.5051,447.9084 774.6312,454.3029L762.7325,469.9136C757.8586,476.308 748.6053,477.5317 742.2341,472.6244z" style="fill:#FFFFFF;" />
  <path id="Rectangle15" d="M194.4754,433.8092L465.7204,215.1169C471.9817,210.0687 481.3914,210.9795 486.5653,217.1345L499.697,232.7567C504.8709,238.9117 503.9761,248.1306 497.7148,253.1788L226.4698,471.8712C220.2084,476.9194 210.7987,476.0086 205.6248,469.8535L192.4931,454.2314C187.3192,448.0763 188.214,438.8574 194.4754,433.8092z" style="fill:#FFFFFF;" />
  <path id="Rectangle16" d="M438.4718,580L521.5282,580C537.1474,580 550,592.7522 550,608.2493L550,771.7507C550,787.2478 537.1474,800 521.5282,800L438.4718,800C422.8526,800 410,787.2478 410,771.7507L410,608.2493C410,592.7522 422.8526,580 438.4718,580z" style="fill:#B2B2B2;" />
  <path id="Rectangle17" d="M448.4718,590L511.5282,590C527.1474,590 540,602.7522 540,618.2493L540,811.7507C540,827.2478 527.1474,840 511.5282,840L448.4718,840C432.8526,840 420,827.2478 420,811.7507L420,618.2493C420,602.7522 432.8526,590 448.4718,590z" style="fill:#FFFFFF;" />
  <path id="Rectangle18" d="M245.347,488.5883L462.8024,313.264C469.0637,308.2157 478.4735,309.1266 483.6473,315.2816L500.5687,335.412C505.7425,341.5671 504.8477,350.786 498.5864,355.8342L281.131,531.1585C274.8697,536.2067 265.46,535.2959 260.2861,529.1408L243.3647,509.0104C238.1909,502.8554 239.0857,493.6365 245.347,488.5883z" style="fill:#FFFFFF;" />
  <path id="Rectangle19" d="M696.9493,526.9651L460.137,346.397C453.8225,341.5822 452.7408,332.6307 457.7407,326.5672L467.0221,315.3113C472.022,309.2477 481.3323,308.2201 487.6468,313.0349L724.4591,493.603C730.7736,498.4178 731.8553,507.3693 726.8554,513.4328L717.574,524.6887C712.5741,530.7523 703.2638,531.7799 696.9493,526.9651z" style="fill:#FFFFFF;" />
</svg>